<svg width="1512" height="982" viewBox="0 0 1512 982" fill="none" xmlns="http://www.w3.org/2000/svg">
<g clip-path="url(#clip0_1_1187)">
<rect width="1512" height="982" fill="#9DFF00"/>
<path d="M641.424 976.883L233.135 798.411L232.75 798.242L232.333 798.298L168.374 806.971L-196.176 629.043L376.417 553.634L605.412 749.812L641.424 976.883ZM-133.919 850.99L167.876 810.067L677.279 1058.69L-133.919 850.99Z" fill="#9DFF00" stroke="#1F2812" stroke-width="3"/>
<path d="M988.819 554.775L1266.88 206.591L1267.15 206.262L1267.2 205.845L1275.38 141.82L1541.59 -164.257L1466.24 408.343L1217.47 578.761L988.819 554.775ZM1311.1 -161.565L1272.51 140.538L900.516 568.234L1311.1 -161.565Z" fill="#9DFF00" stroke="#1F2812" stroke-width="3"/>
<path d="M493.334 -424.477L426.616 16.0913L426.554 16.5077L426.716 16.8957L451.646 76.4308L374.134 474.61L153.096 -58.9547L283.321 -330.922L493.334 -424.477ZM572.405 357.03L454.766 76.1106L563.078 -480.285L572.405 357.03Z" fill="#9DFF00" stroke="#1F2812" stroke-width="3"/>
<path d="M1127.33 704.523L1060.62 1145.09L1060.55 1145.51L1060.72 1145.9L1085.65 1205.43L1008.13 1603.61L787.096 1070.05L917.321 798.078L1127.33 704.523ZM1206.41 1486.03L1088.77 1205.11L1197.08 648.715L1206.41 1486.03Z" fill="#9DFF00" stroke="#1F2812" stroke-width="3"/>
</g>
<defs>
<clipPath id="clip0_1_1187">
<rect width="1512" height="982" fill="white"/>
</clipPath>
</defs>
</svg>
