<svg width="182" height="186" viewBox="0 0 182 186" fill="none" xmlns="http://www.w3.org/2000/svg">
<path d="M122.972 102.912L122.465 106.876L125.455 104.224L142.28 89.2997L130.03 108.162L127.853 111.514L131.699 110.421L153.331 104.276L134.113 115.954L130.696 118.03L134.635 118.714L156.794 122.563L134.409 124.747L130.43 125.135L133.682 127.46L151.976 140.543L130.861 132.797L127.108 131.421L129.029 134.926L139.834 154.648L124.172 138.511L121.388 135.642L121.598 139.633L122.775 162.092L115.666 140.756L114.403 136.964L112.86 140.651L104.175 161.398L107.028 139.088L107.536 135.123L104.545 137.776L87.7197 152.699L99.9698 133.838L102.147 130.486L98.3016 131.579L76.6685 137.723L95.8877 126.046L99.3039 123.97L95.3654 123.286L73.2054 119.436L95.5917 117.253L99.5698 116.865L96.3186 114.54L78.0231 101.456L99.139 109.203L102.892 110.579L100.971 107.074L90.1657 87.3506L105.828 103.489L108.612 106.358L108.403 102.367L107.224 79.9066L114.334 101.244L115.597 105.036L117.14 101.349L125.825 80.6009L122.972 102.912Z" fill="#FFD258" stroke="black" stroke-width="3"/>
<path d="M120.506 106.914L120.946 108.653L122.58 107.912L143.049 98.6309L129.446 116.522L128.36 117.95L129.958 118.767L149.978 128.983L127.508 129.503L125.714 129.544L126.073 131.303L130.565 153.323L116.15 136.08L115 134.704L113.85 136.08L99.4336 153.323L103.927 131.303L104.286 129.544L102.492 129.503L80.0215 128.983L100.042 118.767L101.64 117.95L100.554 116.522L86.9502 98.6309L107.42 107.912L109.054 108.653L109.494 106.914L115 85.1221L120.506 106.914Z" fill="#FF8A31" stroke="black" stroke-width="3"/>
<mask id="path-3-inside-1_17_4379" fill="white">
<path d="M26.3059 17.0512C36.6078 13.9122 47.5039 19.7189 50.6429 30.0208C50.8163 30.5898 50.9602 31.1612 51.0798 31.7324C53.7135 31.7422 56.3032 32.1207 58.7832 32.8307C61.1956 29.1204 64.8773 26.2062 69.442 24.8153C79.7439 21.6763 90.6399 27.483 93.779 37.7849C95.9309 44.8471 93.8781 52.188 89.0558 57.1183C91.0368 58.9293 92.5742 61.2776 93.4132 64.0311C95.562 71.0831 92.4369 78.4846 86.298 81.9975C89.6817 84.4066 92.3261 87.91 93.6304 92.1906C93.8627 92.9529 94.0441 93.7189 94.1803 94.4844C99.5818 95.5772 104.228 99.5224 105.947 105.164C108.442 113.353 103.826 122.014 95.6375 124.509C88.5128 126.68 81.0306 123.468 77.563 117.203C68.2586 118.459 59.1492 112.831 56.3238 103.558C56.2744 103.396 56.2276 103.234 56.1826 103.071C47.399 105.511 38.2785 101.518 33.9709 93.8368C26.1781 93.2571 19.1742 87.9941 16.7597 80.0701C14.4674 72.5467 16.9461 64.7068 22.4621 59.8023C22.4962 57.5483 22.7969 55.328 23.3468 53.1838C18.6961 50.8831 14.9681 46.7433 13.3364 41.3883C10.1973 31.0863 16.004 20.1903 26.3059 17.0512Z"/>
</mask>
<path d="M26.3059 17.0512C36.6078 13.9122 47.5039 19.7189 50.6429 30.0208C50.8163 30.5898 50.9602 31.1612 51.0798 31.7324C53.7135 31.7422 56.3032 32.1207 58.7832 32.8307C61.1956 29.1204 64.8773 26.2062 69.442 24.8153C79.7439 21.6763 90.6399 27.483 93.779 37.7849C95.9309 44.8471 93.8781 52.188 89.0558 57.1183C91.0368 58.9293 92.5742 61.2776 93.4132 64.0311C95.562 71.0831 92.4369 78.4846 86.298 81.9975C89.6817 84.4066 92.3261 87.91 93.6304 92.1906C93.8627 92.9529 94.0441 93.7189 94.1803 94.4844C99.5818 95.5772 104.228 99.5224 105.947 105.164C108.442 113.353 103.826 122.014 95.6375 124.509C88.5128 126.68 81.0306 123.468 77.563 117.203C68.2586 118.459 59.1492 112.831 56.3238 103.558C56.2744 103.396 56.2276 103.234 56.1826 103.071C47.399 105.511 38.2785 101.518 33.9709 93.8368C26.1781 93.2571 19.1742 87.9941 16.7597 80.0701C14.4674 72.5467 16.9461 64.7068 22.4621 59.8023C22.4962 57.5483 22.7969 55.328 23.3468 53.1838C18.6961 50.8831 14.9681 46.7433 13.3364 41.3883C10.1973 31.0863 16.004 20.1903 26.3059 17.0512Z" fill="url(#paint0_linear_17_4379)"/>
<path d="M51.0798 31.7324L48.1434 32.347L48.6407 34.7234L51.0686 34.7324L51.0798 31.7324ZM58.7832 32.8307L57.9575 35.7148L60.0895 36.3251L61.2983 34.466L58.7832 32.8307ZM89.0558 57.1183L86.9111 55.0205L84.7414 57.2388L87.0316 59.3325L89.0558 57.1183ZM86.298 81.9975L84.808 79.3936L80.7388 81.7222L84.558 84.4413L86.298 81.9975ZM94.1803 94.4844L91.2266 95.0096L91.5841 97.0199L93.5854 97.4248L94.1803 94.4844ZM77.563 117.203L80.1878 115.75L79.1944 113.956L77.1616 114.23L77.563 117.203ZM56.1826 103.071L59.0737 102.27L58.2722 99.3772L55.3797 100.181L56.1826 103.071ZM33.9709 93.8368L36.5875 92.3694L35.7997 90.9645L34.1934 90.845L33.9709 93.8368ZM22.4621 59.8023L24.4555 62.0443L25.4419 61.1673L25.4618 59.8476L22.4621 59.8023ZM23.3468 53.1838L26.2528 53.9291L26.857 51.5733L24.677 50.4949L23.3468 53.1838ZM26.3059 17.0512L27.1803 19.921C35.8974 17.2649 45.1171 22.1782 47.7732 30.8952L50.6429 30.0208L53.5127 29.1464C49.8907 17.2595 37.3183 10.5595 25.4315 14.1815L26.3059 17.0512ZM50.6429 30.0208L47.7732 30.8952C47.9183 31.3713 48.0405 31.8554 48.1434 32.347L51.0798 31.7324L54.0161 31.1179C53.8799 30.4669 53.7144 29.8084 53.5127 29.1464L50.6429 30.0208ZM51.0798 31.7324L51.0686 34.7324C53.4218 34.7412 55.7376 35.0793 57.9575 35.7148L58.7832 32.8307L59.6088 29.9465C56.8688 29.1621 54.0051 28.7433 51.0909 28.7325L51.0798 31.7324ZM58.7832 32.8307L61.2983 34.466C63.3406 31.325 66.4518 28.8626 70.3164 27.6851L69.442 24.8153L68.5675 21.9456C63.3027 23.5498 59.0507 26.9158 56.2681 31.1954L58.7832 32.8307ZM69.442 24.8153L70.3164 27.6851C79.0334 25.029 88.2531 29.9423 90.9093 38.6593L93.779 37.7849L96.6487 36.9105C93.0268 25.0236 80.4544 18.3236 68.5675 21.9456L69.442 24.8153ZM93.779 37.7849L90.9093 38.6593C92.7288 44.631 90.9979 50.8423 86.9111 55.0205L89.0558 57.1183L91.2004 59.216C96.7584 53.5337 99.1329 45.0633 96.6487 36.9105L93.779 37.7849ZM89.0558 57.1183L87.0316 59.3325C88.6277 60.7916 89.8658 62.6814 90.5435 64.9056L93.4132 64.0311L96.2829 63.1567C95.2826 59.8737 93.4459 57.067 91.0799 54.904L89.0558 57.1183ZM93.4132 64.0311L90.5435 64.9056C92.2752 70.5888 89.7585 76.5608 84.808 79.3936L86.298 81.9975L87.788 84.6013C95.1152 80.4084 98.8488 71.5774 96.2829 63.1567L93.4132 64.0311ZM86.298 81.9975L84.558 84.4413C87.4218 86.4802 89.6562 89.4404 90.7606 93.065L93.6304 92.1906L96.5001 91.3161C94.9959 86.3795 91.9417 82.3329 88.038 79.5536L86.298 81.9975ZM93.6304 92.1906L90.7606 93.065C90.9566 93.708 91.1106 94.3571 91.2266 95.0096L94.1803 94.4844L97.1339 93.9592C96.9777 93.0807 96.7688 92.1979 96.5001 91.3161L93.6304 92.1906ZM94.1803 94.4844L93.5854 97.4248C97.9502 98.3078 101.692 101.493 103.077 106.038L105.947 105.164L108.816 104.29C106.763 97.552 101.213 92.8465 94.7751 91.5439L94.1803 94.4844ZM105.947 105.164L103.077 106.038C105.089 112.642 101.367 119.627 94.763 121.639L95.6375 124.509L96.5119 127.379C106.286 124.401 111.794 114.063 108.816 104.29L105.947 105.164ZM95.6375 124.509L94.763 121.639C89.0208 123.389 82.9837 120.802 80.1878 115.75L77.563 117.203L74.9383 118.656C79.0774 126.134 88.0047 129.971 96.5119 127.379L95.6375 124.509ZM77.563 117.203L77.1616 114.23C69.2906 115.293 61.5833 110.526 59.1935 102.684L56.3238 103.558L53.4541 104.432C56.7151 115.135 67.2267 121.626 77.9645 120.176L77.563 117.203ZM56.3238 103.558L59.1935 102.684C59.1528 102.55 59.1131 102.413 59.0737 102.27L56.1826 103.071L53.2915 103.872C53.342 104.055 53.396 104.242 53.4541 104.432L56.3238 103.558ZM56.1826 103.071L55.3797 100.181C47.9526 102.244 40.2319 98.8679 36.5875 92.3694L33.9709 93.8368L31.3543 95.3042C36.3252 104.168 46.8455 108.778 56.9855 105.962L56.1826 103.071ZM33.9709 93.8368L34.1934 90.845C27.5938 90.3541 21.671 85.8957 19.6295 79.1956L16.7597 80.0701L13.89 80.9445C16.6774 90.0924 24.7625 96.1601 33.7484 96.8285L33.9709 93.8368ZM16.7597 80.0701L19.6295 79.1956C17.6911 72.8342 19.7825 66.1992 24.4555 62.0443L22.4621 59.8023L20.4687 57.5604C14.1097 63.2144 11.2436 72.2592 13.89 80.9445L16.7597 80.0701ZM22.4621 59.8023L25.4618 59.8476C25.4922 57.8307 25.7613 55.8454 26.2528 53.9291L23.3468 53.1838L20.4409 52.4385C19.8325 54.8106 19.5001 57.2658 19.4625 59.757L22.4621 59.8023ZM23.3468 53.1838L24.677 50.4949C20.7365 48.5455 17.5868 45.045 16.2061 40.5138L13.3364 41.3883L10.4666 42.2627C12.3494 48.4417 16.6557 53.2208 22.0166 55.8728L23.3468 53.1838ZM13.3364 41.3883L16.2061 40.5138C13.55 31.7968 18.4633 22.5771 27.1803 19.921L26.3059 17.0512L25.4315 14.1815C13.5447 17.8035 6.84466 30.3759 10.4666 42.2627L13.3364 41.3883Z" fill="black" mask="url(#path-3-inside-1_17_4379)"/>
<mask id="path-5-inside-2_17_4379" fill="white">
<path d="M168.332 75.7907C163.022 74.1726 157.404 77.166 155.786 82.4768C155.697 82.7699 155.624 83.0648 155.562 83.359C154.203 83.3639 152.867 83.559 151.588 83.9254C150.344 82.013 148.447 80.51 146.094 79.793C140.783 78.175 135.165 81.1692 133.547 86.4801C132.438 90.1211 133.498 93.9048 135.984 96.4464C134.963 97.3802 134.168 98.5902 133.736 100.01C132.628 103.647 134.242 107.462 137.408 109.272C135.662 110.514 134.297 112.32 133.624 114.528C133.505 114.921 133.413 115.315 133.343 115.709C130.557 116.272 128.161 118.306 127.274 121.216C125.988 125.437 128.368 129.903 132.589 131.189C136.263 132.308 140.119 130.651 141.907 127.421C146.704 128.069 151.4 125.169 152.857 120.388C152.883 120.304 152.905 120.218 152.928 120.133C157.458 121.393 162.161 119.336 164.381 115.373C168.398 115.074 172.01 112.364 173.254 108.279C174.436 104.402 173.157 100.363 170.315 97.8344C170.297 96.6698 170.142 95.5227 169.858 94.4151C172.255 93.2289 174.177 91.0973 175.019 88.337C176.637 83.0261 173.643 77.4089 168.332 75.7907Z"/>
</mask>
<path d="M168.332 75.7907C163.022 74.1726 157.404 77.166 155.786 82.4768C155.697 82.7699 155.624 83.0648 155.562 83.359C154.203 83.3639 152.867 83.559 151.588 83.9254C150.344 82.013 148.447 80.51 146.094 79.793C140.783 78.175 135.165 81.1692 133.547 86.4801C132.438 90.1211 133.498 93.9048 135.984 96.4464C134.963 97.3802 134.168 98.5902 133.736 100.01C132.628 103.647 134.242 107.462 137.408 109.272C135.662 110.514 134.297 112.32 133.624 114.528C133.505 114.921 133.413 115.315 133.343 115.709C130.557 116.272 128.161 118.306 127.274 121.216C125.988 125.437 128.368 129.903 132.589 131.189C136.263 132.308 140.119 130.651 141.907 127.421C146.704 128.069 151.4 125.169 152.857 120.388C152.883 120.304 152.905 120.218 152.928 120.133C157.458 121.393 162.161 119.336 164.381 115.373C168.398 115.074 172.01 112.364 173.254 108.279C174.436 104.402 173.157 100.363 170.315 97.8344C170.297 96.6698 170.142 95.5227 169.858 94.4151C172.255 93.2289 174.177 91.0973 175.019 88.337C176.637 83.0261 173.643 77.4089 168.332 75.7907Z" fill="url(#paint1_linear_17_4379)"/>
<path d="M168.332 75.7907L169.207 72.9209L169.207 72.9209L168.332 75.7907ZM155.786 82.4768L152.916 81.6024L152.916 81.6023L155.786 82.4768ZM155.562 83.359L158.499 83.9738L158.001 86.3502L155.573 86.359L155.562 83.359ZM151.588 83.9254L152.414 86.8094L150.282 87.42L149.073 85.5609L151.588 83.9254ZM146.094 79.793L146.968 76.9232L146.968 76.9233L146.094 79.793ZM133.547 86.4801L130.677 85.6058L130.677 85.6056L133.547 86.4801ZM135.984 96.4464L138.129 94.3485L140.299 96.5673L138.008 98.6611L135.984 96.4464ZM133.736 100.01L130.866 99.1358L130.866 99.1357L133.736 100.01ZM137.408 109.272L138.897 106.667L142.971 108.996L139.147 111.717L137.408 109.272ZM133.624 114.528L130.755 113.654L130.755 113.654L133.624 114.528ZM133.343 115.709L136.297 116.235L135.939 118.246L133.937 118.65L133.343 115.709ZM127.274 121.216L124.405 120.341L124.405 120.341L127.274 121.216ZM132.589 131.189L131.715 134.059L131.715 134.059L132.589 131.189ZM141.907 127.421L139.282 125.969L140.275 124.173L142.308 124.448L141.907 127.421ZM152.857 120.388L155.726 121.263L155.726 121.263L152.857 120.388ZM152.928 120.133L150.037 119.333L150.838 116.438L153.732 117.243L152.928 120.133ZM164.381 115.373L161.764 113.907L162.552 112.501L164.159 112.382L164.381 115.373ZM173.254 108.279L176.124 109.154L176.124 109.154L173.254 108.279ZM170.315 97.8344L168.321 100.076L167.335 99.1985L167.315 97.8789L170.315 97.8344ZM169.858 94.4151L166.952 95.161L166.347 92.8051L168.527 91.7263L169.858 94.4151ZM175.019 88.337L177.888 89.2113L177.888 89.2114L175.019 88.337ZM168.332 75.7907L167.458 78.6604C163.732 77.5252 159.791 79.6254 158.656 83.3513L155.786 82.4768L152.916 81.6023C155.018 74.7067 162.311 70.8199 169.207 72.9209L168.332 75.7907ZM155.786 82.4768L158.656 83.3512C158.597 83.5441 158.545 83.7506 158.499 83.9738L155.562 83.359L152.626 82.7443C152.702 82.3789 152.796 81.9957 152.916 81.6024L155.786 82.4768ZM155.562 83.359L155.573 86.359C154.495 86.3629 153.432 86.5177 152.414 86.8094L151.588 83.9254L150.762 81.0413C152.302 80.6002 153.912 80.365 155.551 80.359L155.562 83.359ZM151.588 83.9254L149.073 85.5609C148.199 84.2169 146.871 83.1661 145.219 82.6627L146.094 79.793L146.968 76.9233C150.022 77.8538 152.489 79.809 154.103 82.2898L151.588 83.9254ZM146.094 79.793L145.219 82.6628C141.494 81.5277 137.552 83.6283 136.417 87.3545L133.547 86.4801L130.677 85.6056C132.778 78.7101 140.072 74.8224 146.968 76.9232L146.094 79.793ZM133.547 86.4801L136.417 87.3544C135.64 89.9038 136.377 92.5581 138.129 94.3485L135.984 96.4464L133.84 98.5444C130.618 95.2515 129.235 90.3385 130.677 85.6058L133.547 86.4801ZM135.984 96.4464L138.008 98.6611C137.37 99.2443 136.876 99.9963 136.605 100.885L133.736 100.01L130.866 99.1357C131.461 97.1841 132.555 95.5161 133.961 94.2318L135.984 96.4464ZM133.736 100.01L136.605 100.885C135.915 103.15 136.918 105.536 138.897 106.667L137.408 109.272L135.92 111.876C131.565 109.387 129.34 104.143 130.866 99.1358L133.736 100.01ZM137.408 109.272L139.147 111.717C137.921 112.589 136.966 113.852 136.494 115.402L133.624 114.528L130.755 113.654C131.628 110.788 133.404 108.439 135.67 106.827L137.408 109.272ZM133.624 114.528L136.494 115.402C136.413 115.667 136.348 115.944 136.297 116.235L133.343 115.709L130.389 115.184C130.478 114.686 130.596 114.174 130.755 113.654L133.624 114.528ZM133.343 115.709L133.937 118.65C132.189 119.003 130.697 120.277 130.144 122.09L127.274 121.216L124.405 120.341C125.625 116.336 128.926 113.541 132.749 112.769L133.343 115.709ZM127.274 121.216L130.144 122.09C129.341 124.727 130.827 127.516 133.464 128.319L132.589 131.189L131.715 134.059C125.908 132.29 122.635 126.148 124.405 120.341L127.274 121.216ZM132.589 131.189L133.464 128.319C135.754 129.017 138.165 127.986 139.282 125.969L141.907 127.421L144.532 128.873C142.073 133.317 136.772 135.6 131.715 134.059L132.589 131.189ZM141.907 127.421L142.308 124.448C145.673 124.902 148.966 122.864 149.987 119.514L152.857 120.388L155.726 121.263C153.834 127.474 147.735 131.236 141.505 130.394L141.907 127.421ZM152.857 120.388L149.987 119.514C149.998 119.478 149.998 119.475 150.037 119.333L152.928 120.133L155.82 120.933C155.812 120.961 155.767 121.129 155.726 121.263L152.857 120.388ZM152.928 120.133L153.732 117.243C156.906 118.126 160.207 116.685 161.764 113.907L164.381 115.373L166.998 116.84C164.114 121.987 158.011 124.661 152.124 123.024L152.928 120.133ZM164.381 115.373L164.159 112.382C166.985 112.171 169.513 110.264 170.384 107.405L173.254 108.279L176.124 109.154C174.506 114.464 169.812 117.977 164.604 118.365L164.381 115.373ZM173.254 108.279L170.384 107.405C171.212 104.691 170.321 101.856 168.321 100.076L170.315 97.8344L172.309 95.593C175.992 98.8702 177.66 104.113 176.124 109.154L173.254 108.279ZM170.315 97.8344L167.315 97.8789C167.301 96.9517 167.178 96.04 166.952 95.161L169.858 94.4151L172.764 93.6691C173.107 95.0054 173.293 96.388 173.314 97.7899L170.315 97.8344ZM169.858 94.4151L168.527 91.7263C170.216 90.8905 171.559 89.3973 172.149 87.4626L175.019 88.337L177.888 89.2114C176.796 92.7973 174.294 95.5672 171.188 97.1039L169.858 94.4151ZM175.019 88.337L172.149 87.4627C173.284 83.7365 171.184 79.7957 167.458 78.6604L168.332 75.7907L169.207 72.9209C176.103 75.0221 179.989 82.3157 177.888 89.2113L175.019 88.337Z" fill="black" mask="url(#path-5-inside-2_17_4379)"/>
<defs>
<linearGradient id="paint0_linear_17_4379" x1="41.1329" y1="12.5334" x2="102.744" y2="106.662" gradientUnits="userSpaceOnUse">
<stop stop-color="#D9D9D9"/>
<stop offset="0.642842" stop-color="#737373"/>
<stop offset="1" stop-color="#272727"/>
</linearGradient>
<linearGradient id="paint1_linear_17_4379" x1="160.689" y1="73.4616" x2="128.926" y2="121.989" gradientUnits="userSpaceOnUse">
<stop stop-color="#D9D9D9"/>
<stop offset="0.642842" stop-color="#737373"/>
<stop offset="1" stop-color="#272727"/>
</linearGradient>
</defs>
</svg>
